<?xml version="1.0" encoding="UTF-8"?>
<svg id="Capa_1" data-name="Capa 1" xmlns="http://www.w3.org/2000/svg" viewBox="0 0 300 300">
  <defs>
    <style>
      .cls-1 {
        fill: #1d1d1b;
      }

      .cls-2 {
        fill: #fff;
      }
    </style>
  </defs>
  <path class="cls-2" d="M150.59,1.48C68.39,1.48,1.53,68.35,1.53,150.54s66.87,149.06,149.06,149.06,149.06-66.87,149.06-149.06S232.78,1.48,150.59,1.48Z"/>
  <g>
    <path class="cls-1" d="M16.21,204.33c.26.65.53,1.31.8,1.95.01-.69-.08-1.36-.57-1.79-.06-.06-.14-.11-.23-.17Z"/>
    <path class="cls-1" d="M251.54,185.46c.07-.12.07-.29.03-.48-.07.21-.14.42-.21.63.08-.04.15-.09.19-.15Z"/>
    <path class="cls-1" d="M53.5,256.06c-1.48-.66-3.58-2.09-5.72-3.73,2.02,2.04,4.1,4.02,6.23,5.93.26-.22.46-.45.5-.7.09-.62-.68-1.36-1.01-1.5Z"/>
    <path class="cls-1" d="M143.21,10.59c.69.06,1.05-2.55,1.69-2.41.7.16-.32,2.08,1.29,3.45.58.49,2.47-3.34,2.74-3.53.68-.48.51,4.3,1.79,4.65.39.11,1.53.2,2.47-2,.96-2.26,2.24-3.67,3.4-4.82-1.99-.08-3.99-.13-6-.13-2.83,0-5.64.09-8.43.25.36,2.68.45,4.49,1.06,4.55Z"/>
    <path class="cls-1" d="M176.8,291.9c-.14-.61-1.13-1.02-1.48-1.04-4.58-.24-16.02-4.36-17.35-5.69-.52-.51,2.48-1.61,5.18-1.46,6.43.37,10.74,3.56,12.47,4.18.84.3,1.31-1.99.71-2.56-1.21-1.15-2.74-2.3-2.63-2.61.16-.43,4.81,1.94,5.42.96.5-.79-2.06-3.59-1.65-4.03.31-.34,2.46,1.53,2.2.95-.92-2.08-2.37-6.84-3.4-14.98-.19-1.48-.29-4.95.09-4.42,1.01,1.43,2.85,3.35,4.09,6.9,2.11,6.04,1.6,11.46,2.65,11.56.69.06,1.05-2.55,1.69-2.41.7.16-.32,2.08,1.29,3.45.58.49,2.47-3.34,2.74-3.53.68-.48.51,4.3,1.79,4.65.39.11,1.53.2,2.47-2,1.4-3.27,3.46-4.79,4.87-6.27,2.74-2.89,7.13-2.63,7.52-1.65.22.55-1.24,1.03-3.63,3.69-2.76,3.07-2.55,4.36-4.7,5.53-1.4.76-3.27,1.14-3.8,2.68-.55,1.59-2.07,1.63-1.17,2.29,1.11.82,3.39.9,3.48,1.62.03.22-.24.41-.62.6,14.6-4.72,28.19-11.7,40.36-20.53-.57,0-1.16-.03-1.77-.08-1.67-.14-4.86-.42-5.24-1.83-.36-1.35,2.03-3.04,2.44-3.33,2.07-1.47,4.31-1.65,5.12-1.68,3.76-.15,5.59,1.81,7.39.62.62-.41,1.21-1.19,1.03-1.66-.32-.82-2.8-.28-7.53-.19-5.39.1-6.5-.52-7.14-1.23-.81-.89-1.29-2.34-.81-3.43.66-1.51,2.99-1.12,4.04-1.24,3.23-.37,4.17.53,7.54.24,2.05-.18,3.85-.93,3.81-1.21-.04-.27-1.67,0-4.16-.28-2.13-.24-4.93-.58-6.98-2.53-1.15-1.1-2.22-2.85-1.72-3.61.28-.43.9-.32,3.5-.51.59-.04,2.96-.23,2.96-.46,0-.22-2.09.06-3.2-1.21-.51-.59-.83-1.53-.49-2.09.3-.5.88-.28,1.27-.62,1.32-1.14-3-5.87-1.59-9.39.15-.37-.14-1.46.48-2.39.15-.23.6-.91,1.08-.85.71.08.54,1.65,1.73,3.49.3.46,1.23,1.85,2.89,2.55.98.41,1.1.11,1.85.51,1.64.87,1.53,2.54,2.62,2.77,1.07.22,1.26-1.68,1.76-1.41.83.45,0,6.13.36,5.39.66-1.34,3.78-3.99,4.51-3.59.8.45-1.82,7.22-1.24,6.75,2.16-1.75,3.73-3.7,5.14-3.27.96.29.55,2.11.07,4.32-.84,3.81-7.19,9.21-6.83,9.1,3.46-1,6.69-5.09,7.61-5.82.19-.15.35-.26.53-.4,24.14-25.87,38.94-60.57,38.94-98.66,0-28.94-8.54-55.92-23.23-78.57-.08.06-.17.1-.24.18-.86.94,1.13,4.44.24,4.58-.37.06-3.07-1.88-3.23-1.71-.21.21,3.17,3.65,6.18,8.1,2.5,3.7,2.25,8.5,1.76,9.98-.57,1.73-6.1-5.55-8.6-12.45-.41-1.12-.46-4.01-.92-4.07-.42-.05-.83,2.2-1.45,2.18-.83-.03-.81-4.1-2.06-4.35-.75-.15-1.59,1.15-2.05,1.84-1.82,2.75-4.02,5.23-6.03,7.85-2.8,3.68-6.85,6.76-7.51,6.23-.8-.64,2.28-7.57,7.64-13.05,2.07-2.12,5.45-3.76,5.06-4.37-.44-.69-4.4.97-4.6.53-.19-.43,2.56-2.27,2.29-3.43-.14-.61-1.13-1.02-1.48-1.04-4.58-.24-16.02-4.36-17.35-5.69-.52-.51,2.48-1.61,5.18-1.46,6.43.37,10.74,3.56,12.47,4.18.84.3,1.31-1.99.71-2.56-1.21-1.15-2.74-2.3-2.63-2.61.16-.43,4.81,1.94,5.42.96.5-.79-2.06-3.59-1.65-4.03.31-.34,2.46,1.53,2.2.95-.22-.51-.48-1.18-.75-2.01-24.22-28.37-59.18-47.31-98.52-50.45-.08.09-.15.16-.24.25-2.76,3.07-2.55,4.36-4.7,5.53-1.4.76-3.27,1.14-3.8,2.68-.55,1.59-2.07,1.63-1.17,2.29,1.11.82,3.39.9,3.48,1.62.1.72-2.77,1.04-3.12,2.53-.01.05-.01.11-.02.17,1.16-.47,3.3-1.07,7.4-.71,1.34.11,3.56.39,6.4,1.21.88.26,6.65,1.92,6.5,3.01-.09.61-2.01.78-4.19.97-1.82.15-5.84.37-13.78-1.14-.17-.03-.31-.06-.47-.09.5.54.83.89.57.83-1.42-.34-3.71-1.65-4.83-.42-.86.94,1.13,4.44.24,4.58-.37.06-3.07-1.88-3.23-1.71-.21.21,3.17,3.65,6.18,8.1,1.79,2.66,2.16,5.87,2.05,8.02,14.65.66,28.54,4.27,41.08,10.28,1.13-.51,2.76.23,3.63.38,3.2.57,3.85,1.69,7.16,2.38,2.02.42,3.96.2,4-.08.04-.27-1.6-.48-3.91-1.45-1.98-.83-4.56-1.96-5.97-4.41-.79-1.38-1.31-3.36-.62-3.95.39-.33.95-.05,3.5.51.58.13,2.9.62,2.97.4.07-.21-2.02-.53-2.72-2.07-.32-.71-.36-1.7.12-2.14.43-.39.92-.02,1.39-.23,1.59-.72-1.21-6.48,1.15-9.45.25-.32.29-1.44,1.14-2.15.21-.17.84-.7,1.28-.51.65.28.05,1.73.66,3.84.15.52.65,2.13,2.04,3.26.82.67,1.02.41,1.63,1.01,1.32,1.3.74,2.87,1.73,3.4.96.51,1.68-1.25,2.09-.85.66.67-1.75,5.88-1.19,5.27,1.01-1.09,4.76-2.75,5.34-2.15.64.66-3.8,6.4-3.11,6.12,2.57-1.06,4.63-2.49,5.86-1.67.84.55-.07,2.18-1.17,4.16-1.89,3.42-9.52,6.78-9.14,6.78,3.61.03,7.86-2.97,8.95-3.42,4.39-1.78,6.32-1.67,7.19-1.08.98.67-.18,3.16-1.23,4.18-3.42,3.33-7.76,6.08-12.18,6.38-.22.01-.49-.03-.78-.1,1.01.79,2.01,1.59,2.99,2.42,1.76.33,2.84.72,3.54,1.29,1.32,1.07,3.28,3.09,2.67,4.38,19.6,19.36,31.77,46.22,31.77,75.88,0,8.66-1.06,17.07-3.02,25.14.53,3.33.55,5.7,1.24,5.76.69.06,1.05-2.55,1.69-2.41.7.16-.32,2.08,1.29,3.45.58.49,2.47-3.34,2.74-3.53.68-.48.51,4.3,1.79,4.65.39.11,1.53.2,2.47-2,1.4-3.27,3.46-4.79,4.87-6.27,2.74-2.89,7.13-2.63,7.52-1.65.22.55-1.24,1.03-3.63,3.69-2.76,3.07-2.55,4.36-4.7,5.53-1.4.76-3.27,1.14-3.8,2.68-.55,1.59-2.07,1.63-1.17,2.29,1.11.82,3.39.9,3.48,1.62.1.72-2.77,1.04-3.12,2.53-.01.05-.01.11-.02.17,1.16-.47,3.3-1.07,7.4-.71,1.34.11,3.56.39,6.4,1.21.88.26,6.65,1.92,6.5,3.01-.09.61-2.01.78-4.19.97-1.82.15-5.84.37-13.78-1.14-.17-.03-.31-.06-.47-.09.5.54.83.89.57.83-1.42-.34-3.71-1.65-4.83-.42-.86.94,1.13,4.44.24,4.58-.37.06-3.07-1.88-3.23-1.71-.21.21,3.17,3.65,6.18,8.1,2.5,3.7,2.25,8.5,1.76,9.98-.57,1.73-6.1-5.55-8.6-12.45-.41-1.12-.46-4.01-.92-4.07-.42-.05-.83,2.2-1.45,2.18-.83-.03-.81-4.1-2.06-4.35-.75-.15-1.59,1.15-2.05,1.84-1.82,2.75-4.02,5.23-6.03,7.85-2.8,3.68-6.85,6.76-7.51,6.23-.8-.64,2.28-7.57,7.64-13.05,2.07-2.12,5.45-3.76,5.06-4.37-.44-.69-4.4.97-4.6.53-.19-.43,2.56-2.27,2.29-3.43-.08-.32-.39-.58-.72-.77-16.43,37.81-54.12,64.34-97.91,64.34-3.3,0-6.55-.17-9.77-.47.08.07.15.14.23.22,1.18,1.19,3.44,3.47,2.8,4.79-.6,1.26-3.52,1-4.02.96-2.53-.22-4.35-1.53-4.99-2.03-2.96-2.32-3.09-5-5.23-5.26-.74-.09-1.69.12-1.86.6-.28.83,1.95,2.02,5.61,5.02,4.17,3.41,4.61,4.61,4.65,5.56.05,1.2-.53,2.62-1.6,3.14-1.48.72-3.01-1.08-3.88-1.67-2.7-1.81-2.83-3.1-5.59-5.07-1.68-1.2-3.54-1.79-3.69-1.54-.14.23,1.27,1.08,2.99,2.91,1.47,1.56,3.38,3.64,3.68,6.44.17,1.58-.16,3.6-1.03,3.86-.49.15-.89-.34-3-1.88-.48-.35-2.4-1.74-2.56-1.57-.14.16,1.64,1.31,1.65,3,0,.78-.36,1.7-.98,1.91-.55.18-.85-.36-1.37-.36-1.75.01-1.51,6.42-4.87,8.18-.36.19-.84,1.2-1.91,1.51-.26.08-1.05.3-1.38-.05-.48-.52.66-1.6.94-3.78.07-.54.27-2.21-.55-3.81-.48-.95-.77-.79-1.08-1.59-.68-1.73.48-2.93-.21-3.81-.67-.86-2.05.47-2.25-.07-.34-.88,3.97-4.67,3.22-4.34-1.37.59-5.47.59-5.76-.19-.32-.86,6.06-4.32,5.32-4.34-2.78-.07-5.24.41-6.04-.84-.54-.85.95-1.97,2.75-3.34,3.11-2.36,11.44-2.36,11.1-2.51-3.29-1.48-8.4-.46-9.57-.49-4.73-.15-6.46-1.03-7.01-1.91-.63-1.01,1.44-2.82,2.81-3.33,1.24-.46,2.53-.84,3.83-1.13-39.81-15.51-68.1-54.22-68.1-99.45,0-30.98,13.28-58.91,34.44-78.42-.63-.24-1.19-.64-1.49-1.2-.78-1.45.95-3.05,1.5-3.95,1.7-2.78,2.98-2.96,4.83-5.8,1.12-1.73,1.63-3.61,1.38-3.75-.23-.13-1.03,1.32-2.78,3.11-1.5,1.54-3.49,3.53-6.28,3.95-1.57.23-3.61,0-3.9-.86-.17-.48.3-.9,1.75-3.08.33-.49,1.64-2.48,1.46-2.62-.17-.14-1.24,1.69-2.92,1.78-.78.04-1.72-.28-1.95-.9-.21-.54.32-.86.3-1.38-.08-1.75-6.48-1.24-8.38-4.52-.2-.35-1.24-.79-1.59-1.85-.09-.26-.35-1.03,0-1.38.5-.51,1.63.59,3.81.78.54.05,2.22.17,3.78-.71.93-.52.76-.8,1.54-1.15,1.7-.75,2.95.36,3.79-.37.83-.71-.55-2.03-.02-2.25.86-.37,4.83,3.77,4.48,3.03-.65-1.34-.82-5.44-.06-5.76.85-.36,4.58,5.87,4.56,5.13-.05-2.78-.63-5.22.58-6.07.82-.58,2.01.86,3.45,2.6,2.49,3.01,2.84,11.33,2.98,10.99,1.34-3.35.1-8.41.09-9.58-.05-4.73.75-6.49,1.62-7.08.98-.67,2.88,1.32,3.44,2.67,1.85,4.4,2.82,9.44,1.49,13.66-.29.94-2.08,2.36-1.62,3.73.06.18.16.39.3.55.63-.39,1.26-.77,1.89-1.15.05-.1.1-.19.14-.28,2.18-4.26,3.43-6.15,4.74-6.89,1.61-.92,4.58-2.16,5.29-.59.34.75.42,1.51.34,2.3,13.36-6.03,28.16-9.42,43.74-9.42.56,0,1.12.03,1.68.04-1.91-2.44-4.31-6.48-5.73-10.41-.41-1.12-.46-4.01-.92-4.07-.42-.05-.83,2.2-1.45,2.18-.83-.03-.81-4.1-2.06-4.35-.75-.15-1.59,1.15-2.05,1.84-1.82,2.75-4.02,5.23-6.03,7.85-2.8,3.68-6.85,6.76-7.51,6.23-.8-.64,2.28-7.57,7.64-13.05,2.07-2.12,5.45-3.76,5.06-4.37-.44-.69-4.4.97-4.6.53-.19-.43,2.56-2.27,2.29-3.43-.14-.61-1.13-1.02-1.48-1.04-4.58-.24-16.02-4.36-17.35-5.69-.52-.51,2.48-1.61,5.18-1.46,6.43.37,10.74,3.56,12.47,4.18.84.3,1.31-1.99.71-2.56-1.21-1.15-2.74-2.3-2.63-2.61.16-.43,4.81,1.94,5.42.96.5-.79-2.06-3.59-1.65-4.03.31-.34,2.46,1.53,2.2.95-.46-1.03-1.05-2.74-1.65-5.19-47.97,4.11-89.33,31.71-112.5,71.22.2,1,.48,1.93,1.02,2.08.39.11,1.53.2,2.47-2,1.4-3.27,3.46-4.79,4.87-6.27,2.74-2.89,7.13-2.63,7.52-1.65.22.55-1.24,1.03-3.63,3.69-2.76,3.07-2.55,4.36-4.7,5.53-1.4.76-3.27,1.14-3.8,2.68-.55,1.59-2.07,1.63-1.17,2.29,1.11.82,3.39.9,3.48,1.62.1.72-2.77,1.04-3.12,2.53-.01.05-.01.11-.02.17,1.16-.47,3.3-1.07,7.4-.71,1.34.11,3.56.39,6.4,1.21.88.26,6.65,1.92,6.5,3.01-.09.61-2.01.78-4.19.97-1.82.15-5.84.37-13.78-1.14-.17-.03-.31-.06-.47-.09.5.54.83.89.57.83-1.42-.34-3.71-1.65-4.83-.42-.86.94,1.13,4.44.24,4.58-.37.06-3.07-1.88-3.23-1.71-.21.21,3.17,3.65,6.18,8.1,2.5,3.7,2.25,8.5,1.76,9.98-.57,1.73-6.1-5.55-8.6-12.45-.41-1.12-.46-4.01-.92-4.07-.42-.05-.83,2.2-1.45,2.18-.83-.03-.81-4.1-2.06-4.35-.3-.06-.61.11-.91.38-7.27,17.25-11.3,36.19-11.3,56.05,0,14.25,2.08,28.01,5.93,41.03.09-.88.23-1.82.44-2.81.36-1.64,1.04-4.77,2.5-4.95,1.38-.18,2.75,2.41,2.99,2.85,1.19,2.24,1.08,4.49,1,5.29-.34,3.74-2.52,5.31-1.57,7.25.33.67,1.02,1.36,1.51,1.23.85-.21.64-2.74,1.17-7.44.6-5.35,1.36-6.37,2.14-6.92.98-.69,2.49-.98,3.51-.36,1.41.86.73,3.11.71,4.16-.06,3.25-1.07,4.06-1.22,7.44-.09,2.06.42,3.94.71,3.93.27,0,.22-1.66.82-4.09.51-2.08,1.22-4.82,3.41-6.59,1.24-1,3.11-1.83,3.8-1.24.39.33.2.93.05,3.54-.03.59-.15,2.96.07,3,.22.03.21-2.08,1.62-3.02.65-.43,1.62-.63,2.14-.22.45.36.16.91.45,1.34.96,1.46,6.21-2.22,9.52-.36.35.2,1.47.05,2.31.78.21.18.82.72.7,1.18-.17.69-1.71.32-3.68,1.26-.49.23-2,.98-2.9,2.53-.53.92-.25,1.07-.74,1.77-1.08,1.51-2.72,1.19-3.08,2.24-.36,1.03,1.5,1.47,1.16,1.93-.55.76-6.08-.8-5.39-.34,1.24.83,3.47,4.27,2.97,4.94-.55.74-6.92-2.74-6.53-2.11,1.45,2.37,3.19,4.18,2.58,5.52-.42.91-2.17.27-4.3-.49-3.67-1.33-8.19-8.33-8.14-7.96.54,3.56,4.18,7.3,4.78,8.3,2.45,4.05,2.64,5.98,2.2,6.92-.5,1.08-3.15.32-4.32-.55-1.15-.86-2.26-1.82-3.28-2.85,5.08,9.83,11.25,19.01,18.35,27.38,1.07-.06,2.93.21,4.5.92,5.86,2.66,8.74,7.19,10.13,8.39.67.58,1.94-1.38,1.58-2.13-.71-1.51-1.73-3.13-1.51-3.38.31-.34,3.79,3.54,4.71,2.85.75-.56-.63-4.09-.09-4.36.41-.2,1.74,2.32,1.71,1.68-.11-2.27.25-7.23,2.22-15.2.36-1.45,1.51-4.73,1.67-4.09.42,1.7,1.45,4.15,1.33,7.92-.2,6.4-2.64,11.27-1.69,11.74.62.31,1.9-2,2.44-1.64.59.4-1.05,1.83-.04,3.68.37.67,3.51-2.23,3.82-2.31.81-.21-1.08,4.19,0,4.98.33.24,1.35.74,3.02-.98,2.48-2.55,4.95-3.22,6.8-4.1,3.6-1.71,7.6.11,7.61,1.17,0,.59-1.53.51-4.71,2.13-3.68,1.87-3.94,3.15-6.38,3.47-1.58.21-3.46-.12-4.51,1.13-1.08,1.28-2.52.78-1.92,1.72.74,1.17,2.84,2.06,2.67,2.76-.17.7-2.96-.02-3.82,1.24-.03.05-.05.1-.08.15,1.25-.02,3.46.19,7.16,2,1.21.59,3.18,1.65,5.53,3.43.73.56,5.52,4.19,4.98,5.14-.3.54-2.16,0-4.26-.61-1.75-.51-5.58-1.75-12.45-6.03-.15-.09-.27-.17-.41-.26.27.69.46,1.13.23.98-1.21-.83-2.87-2.87-4.36-2.13-.68.34-.75,1.9-.87,3.05,23.94,17.53,53.44,27.9,85.33,27.9,8.83,0,17.47-.8,25.87-2.32.26-.38.42-.75.35-1.07Z"/>
    <path class="cls-1" d="M90.17,61.69c-.59-.17-1.32.91-2.66,2.85,1.04-.77,2.09-1.52,3.16-2.25-.12-.3-.28-.54-.5-.6Z"/>
  </g>
  <path class="cls-1" d="M176.53,86.33s14.88-6.82,16.81-7.29c1.16-.28,2.41,2.12,4.95,2.63.3,1.19-.24.85-.65,1.18-2.81,2.22-7.16,2.49-9.89,4.07-3.08,1.79-5.97,3.36-8.1,3.55-.53.05-1.43,5.84,0,6.73,1.44.91,3.2.91,4.14,1.04,1.7.22,6.84-2.05,8.81-2.59.52-.14,4.5-1.21,4.66-1.03,1,1.09-1.48,2.06-1.56,2.43-.45,1.93.32,4.11-1.93,5.87-4.11,3.22-12.15.5-8.94,9.31.22,1.89.86,3.35,2.07,4.66,1.97,2.13,3.46,2.8,5.7,4.14,2.95,1.78,2.64,1.97,6.22,2.59,3.71.64,8.83,1.06,12.43,0,3.86-1.13,6.26-6.45,9.11-6.73s8.38,3.7,11.09,5.18c.99.54,2.77,2.02,2.95,2.06,1.01.22,4.18-.43,4.82.01.93.65.2,4.53.02,6.98-.14,1.95-2.03,11.79-3.71,13.93-1.27,1.61-3.69,1.73-5.39,2.92-1.37.97-2.44,3.52-2.31,5.18.08,1.05,1.44,1.59,1.55,2.59s-6.63,6.75-7.52,7.76c-4.44,5.02-9.4,12.26-10.61,18.66-.34,1.8.07,3.27-.52,4.66-.85,2.04-2.63,2.53-3.37,3.62-1.39,2.04-1.25,6.22-3.08,8.84-4.33,6.18-17.83,11.67-24.39,18.09-.93.91-3.46,5.71-5.42,4.46-.9-.57-3.37-6.2-5.15-7.31-1.01-.63-3.67-1.27-4.84-4.04-.28-.66-.25-2.22-.41-3.14-.5-2.72-1.3-1.61-3.01-2.68-.84-.53-2.44-2-3.01-2.17-2.67-.79-4.36,1.13-6.7,1.26-4.46.24-16.54-.89-20.13-3.44-5.92-4.2-3.92-9.87-5.66-15.06-.57-1.68-3.27-1.81-2.37-4.63.47-1.42,2.02-4.76,2.07-5.7.25-4.68-5.75-9.02-9.5-10.97-3.85-2-5.6-2.67-9.69-.71-2.08,1-8.24,4.38-9.83,5.71-3.81,3.19-2.76,9.45-7.79,11.89-6.49,3.16-4.58-2.87-8.78-4.9-.14-1.67.64-3.07,2.59-3.88l-4.4-4.4c-.3-.13-1.63,2.53-3.89,0-.84-.64-4.26,4.08-6.92,2.12-.59-.44-.79-3.05-1.64-4.18-.7-.93-2.02-1.19-2.56-2.1s-1.44-5.59-1.32-6.2c.17-.87,1.23-4.48,1.7-5.04,1.45-1.71,10.34-6.21,12.8-7.4,2.14-1.03,6.66-4.52,6.74-4.66.18-.35.83-1.36,1.04-1.55,3.46-3.14,3.33-3.64,7.77-5.18.88-.3,1.74-.73,2.59-1.04,2.96-1.07,2.88-.94,5.18-3.11,1.36-1.28,3.02-3.16,4.14-4.66,1.49-1.98,6.61-4.95,8.81-7.25,1.22-1.27,2.03-2.46,3.11-3.63s2.99-3.54,4.14-4.14c.57-.3,1.95-.38,3.11-1.04,3.29-1.85,4.29-3.49,6.86-5.32,1.89-1.35,18.51-9.61,24.23-12.3,3.5-1.65,7.13-1.53,10.88-2.07.75.07,1.84.07,2.59,0,2.52-.23,8.27-2.57,9.33-2.59Z"/>
</svg>