<?xml version="1.0" encoding="UTF-8"?>
<svg id="Capa_1" data-name="Capa 1" xmlns="http://www.w3.org/2000/svg" viewBox="0 0 300 300">
  <defs>
    <style>
      .cls-1 {
        fill: #1d1d1b;
      }

      .cls-2 {
        fill: #fff;
      }

      .cls-3 {
        fill: none;
      }
    </style>
  </defs>
  <path class="cls-2" d="M150.59,37.08c-62.57,0-113.47,50.9-113.47,113.47s50.9,113.47,113.47,113.47,113.47-50.9,113.47-113.47-50.9-113.47-113.47-113.47Z"/>
  <g>
    <path class="cls-1" d="M48.3,191.49c.2.5.4.99.61,1.49,0-.53-.06-1.03-.44-1.36-.05-.04-.11-.09-.17-.13Z"/>
    <path class="cls-1" d="M227.43,177.12c.06-.09.05-.22.02-.36-.05.16-.11.32-.16.48.06-.03.11-.07.14-.12Z"/>
    <path class="cls-1" d="M76.69,230.87c-1.13-.5-2.73-1.59-4.35-2.84,1.54,1.55,3.12,3.06,4.74,4.51.2-.16.35-.34.38-.54.07-.47-.52-1.03-.77-1.14Z"/>
    <path class="cls-1" d="M144.98,44.01c.53.05.8-1.94,1.28-1.83.53.12-.25,1.58.98,2.63.44.38,1.88-2.55,2.08-2.69.51-.37.38,3.27,1.36,3.54.3.08,1.16.15,1.88-1.52.73-1.72,1.7-2.79,2.59-3.67-1.52-.06-3.04-.1-4.57-.1-2.15,0-4.29.07-6.42.19.28,2.04.35,3.42.81,3.46Z"/>
    <path class="cls-1" d="M170.54,258.15c-.11-.47-.86-.77-1.13-.79-3.49-.18-12.19-3.32-13.21-4.34-.39-.39,1.89-1.23,3.94-1.11,4.89.28,8.18,2.71,9.49,3.18.64.23,1-1.51.54-1.95-.92-.88-2.09-1.75-2-1.99.12-.33,3.66,1.47,4.13.73.38-.6-1.57-2.73-1.26-3.07.23-.26,1.87,1.17,1.68.72-.7-1.58-1.8-5.21-2.59-11.4-.14-1.13-.22-3.77.07-3.36.77,1.09,2.17,2.55,3.12,5.26,1.61,4.6,1.22,8.73,2.02,8.8.53.05.8-1.94,1.28-1.83.53.12-.25,1.58.98,2.63.44.38,1.88-2.55,2.08-2.69.51-.37.38,3.27,1.36,3.54.3.08,1.16.15,1.88-1.52,1.06-2.49,2.63-3.65,3.7-4.78,2.09-2.2,5.43-2,5.72-1.26.17.42-.94.78-2.76,2.81-2.1,2.34-1.94,3.32-3.58,4.21-1.07.58-2.49.87-2.89,2.04-.42,1.21-1.57,1.24-.89,1.74.85.62,2.58.68,2.65,1.23.02.17-.18.31-.47.46,11.11-3.59,21.46-8.91,30.72-15.62-.44,0-.88-.02-1.35-.06-1.27-.11-3.7-.32-3.99-1.4-.27-1.03,1.55-2.32,1.86-2.54,1.58-1.12,3.28-1.26,3.89-1.28,2.86-.11,4.26,1.38,5.63.47.47-.31.92-.9.78-1.26-.25-.62-2.13-.21-5.73-.15-4.1.08-4.95-.4-5.44-.93-.62-.67-.98-1.78-.62-2.61.51-1.15,2.28-.86,3.07-.95,2.46-.28,3.17.4,5.74.18,1.56-.13,2.93-.71,2.9-.92-.03-.2-1.27,0-3.17-.21-1.62-.18-3.76-.44-5.31-1.92-.88-.83-1.69-2.17-1.31-2.75.21-.32.68-.24,2.67-.39.45-.03,2.25-.18,2.25-.35,0-.17-1.59.05-2.44-.92-.39-.45-.63-1.16-.38-1.59.23-.38.67-.21.97-.47,1.01-.87-2.29-4.47-1.21-7.15.11-.29-.1-1.11.36-1.82.11-.17.46-.69.82-.65.54.06.41,1.26,1.32,2.66.23.35.93,1.41,2.2,1.94.75.31.84.08,1.41.39,1.25.66,1.17,1.93,2,2.11.81.17.96-1.28,1.34-1.07.63.34,0,4.67.27,4.11.5-1.02,2.88-3.04,3.43-2.73.61.34-1.38,5.5-.94,5.14,1.64-1.33,2.84-2.82,3.91-2.49.73.22.42,1.61.05,3.29-.64,2.9-5.47,7.01-5.2,6.93,2.64-.76,5.09-3.87,5.79-4.43.14-.11.27-.2.4-.3,18.38-19.69,29.64-46.1,29.64-75.1,0-22.03-6.5-42.57-17.69-59.8-.06.04-.13.08-.18.13-.66.72.86,3.38.18,3.48-.28.04-2.33-1.43-2.46-1.3-.16.16,2.41,2.78,4.7,6.17,1.9,2.82,1.71,6.47,1.34,7.6-.43,1.32-4.64-4.22-6.55-9.48-.31-.85-.35-3.05-.7-3.1-.32-.04-.63,1.68-1.1,1.66-.63-.03-.61-3.12-1.57-3.31-.57-.12-1.21.87-1.56,1.4-1.39,2.09-3.06,3.98-4.59,5.98-2.13,2.8-5.21,5.15-5.72,4.75-.61-.49,1.74-5.77,5.82-9.94,1.58-1.61,4.15-2.86,3.85-3.32-.33-.53-3.35.74-3.5.4-.15-.33,1.95-1.73,1.74-2.61-.11-.47-.86-.77-1.13-.79-3.49-.18-12.19-3.32-13.21-4.34-.39-.39,1.89-1.23,3.94-1.11,4.89.28,8.18,2.71,9.49,3.18.64.23,1-1.51.54-1.95-.92-.88-2.09-1.75-2-1.99.12-.33,3.66,1.47,4.13.73.38-.6-1.57-2.73-1.26-3.07.23-.26,1.87,1.17,1.68.72-.17-.38-.37-.9-.57-1.53-18.43-21.6-45.04-36.01-74.99-38.4-.06.07-.12.12-.18.19-2.1,2.34-1.94,3.32-3.58,4.21-1.07.58-2.49.87-2.89,2.04-.42,1.21-1.57,1.24-.89,1.74.85.63,2.58.68,2.65,1.23.07.55-2.11.79-2.38,1.93,0,.04,0,.09-.01.13.88-.36,2.51-.81,5.63-.54,1.02.09,2.71.3,4.87.92.67.19,5.07,1.46,4.95,2.29-.07.46-1.53.6-3.19.74-1.38.12-4.45.28-10.49-.87-.13-.02-.24-.05-.36-.07.38.41.63.68.43.63-1.08-.26-2.82-1.26-3.68-.32-.66.72.86,3.38.18,3.48-.28.04-2.33-1.43-2.46-1.3-.16.16,2.41,2.78,4.7,6.17,1.37,2.02,1.64,4.47,1.56,6.11,11.15.5,21.72,3.25,31.27,7.82.86-.39,2.1.17,2.77.29,2.44.43,2.93,1.29,5.45,1.81,1.54.32,3.01.16,3.04-.06.03-.2-1.22-.36-2.98-1.1-1.5-.63-3.47-1.49-4.54-3.35-.6-1.05-1-2.56-.47-3.01.3-.25.72-.04,2.67.38.44.1,2.21.47,2.26.3.05-.16-1.54-.41-2.07-1.58-.24-.54-.28-1.3.09-1.63.33-.3.7-.01,1.06-.17,1.21-.55-.92-4.93.88-7.2.19-.24.22-1.1.87-1.64.16-.13.64-.53.97-.39.5.21.03,1.32.51,2.92.12.4.49,1.62,1.55,2.48.63.51.78.31,1.24.77,1.01.99.57,2.19,1.31,2.59.73.39,1.28-.95,1.59-.64.51.51-1.33,4.47-.9,4.01.77-.83,3.62-2.09,4.07-1.64.49.5-2.89,4.87-2.37,4.66,1.95-.81,3.52-1.89,4.46-1.27.64.42-.05,1.66-.89,3.17-1.44,2.6-7.24,5.16-6.96,5.16,2.74.02,5.99-2.26,6.81-2.6,3.34-1.35,4.81-1.27,5.47-.82.75.51-.14,2.41-.93,3.18-2.6,2.53-5.91,4.62-9.27,4.86-.17.01-.37-.03-.6-.08.77.6,1.53,1.21,2.27,1.84,1.34.25,2.16.55,2.69.98,1.01.81,2.5,2.36,2.03,3.33,14.92,14.74,24.18,35.18,24.18,57.76,0,6.59-.81,12.99-2.3,19.13.4,2.53.42,4.34.94,4.39.53.05.8-1.94,1.28-1.83.53.12-.25,1.58.98,2.63.44.38,1.88-2.55,2.08-2.69.51-.37.38,3.27,1.36,3.54.3.08,1.16.15,1.88-1.52,1.06-2.49,2.63-3.65,3.7-4.78,2.09-2.2,5.43-2,5.72-1.26.17.42-.94.78-2.76,2.81-2.1,2.34-1.94,3.32-3.58,4.21-1.07.58-2.49.87-2.89,2.04-.42,1.21-1.57,1.24-.89,1.74.85.63,2.58.68,2.65,1.23.07.55-2.11.79-2.38,1.93,0,.04,0,.09-.01.13.88-.36,2.51-.81,5.63-.54,1.02.09,2.71.3,4.87.92.67.19,5.07,1.46,4.95,2.29-.07.46-1.53.6-3.19.74-1.38.12-4.45.28-10.49-.87-.13-.02-.24-.05-.36-.07.38.41.63.68.43.63-1.08-.26-2.82-1.26-3.68-.32-.66.72.86,3.38.18,3.48-.28.04-2.33-1.43-2.46-1.3-.16.16,2.41,2.78,4.7,6.17,1.9,2.82,1.71,6.47,1.34,7.6-.43,1.32-4.64-4.22-6.55-9.48-.31-.85-.35-3.05-.7-3.1-.32-.04-.63,1.68-1.1,1.66-.63-.03-.61-3.12-1.57-3.31-.57-.12-1.21.87-1.56,1.4-1.39,2.09-3.06,3.98-4.59,5.98-2.13,2.8-5.21,5.15-5.72,4.75-.61-.49,1.74-5.77,5.82-9.94,1.58-1.61,4.15-2.86,3.85-3.32-.33-.53-3.35.74-3.5.4-.15-.33,1.95-1.73,1.74-2.61-.06-.25-.29-.44-.54-.58-12.51,28.78-41.2,48.97-74.53,48.97-2.51,0-4.99-.13-7.44-.35.06.06.12.11.17.17.9.91,2.62,2.64,2.13,3.65-.46.96-2.68.76-3.06.73-1.92-.17-3.31-1.17-3.8-1.55-2.25-1.77-2.35-3.81-3.98-4-.56-.07-1.29.09-1.41.46-.22.64,1.49,1.54,4.27,3.82,3.17,2.6,3.51,3.51,3.54,4.23.03.91-.41,1.99-1.22,2.39-1.13.55-2.29-.82-2.95-1.27-2.06-1.38-2.16-2.36-4.25-3.86-1.28-.91-2.69-1.36-2.81-1.17-.11.17.97.83,2.28,2.21,1.12,1.19,2.57,2.77,2.8,4.9.13,1.2-.12,2.74-.78,2.94-.37.11-.67-.26-2.28-1.43-.37-.27-1.83-1.32-1.95-1.19-.11.13,1.25.99,1.26,2.28,0,.59-.27,1.3-.74,1.45-.42.14-.65-.27-1.04-.27-1.33,0-1.15,4.89-3.71,6.23-.27.14-.64.92-1.45,1.15-.2.06-.8.23-1.05-.04-.37-.4.5-1.22.72-2.88.05-.41.2-1.68-.42-2.9-.37-.72-.58-.6-.82-1.21-.52-1.31.37-2.23-.16-2.9-.51-.65-1.56.35-1.72-.05-.26-.67,3.02-3.55,2.45-3.31-1.04.45-4.16.45-4.38-.14-.24-.66,4.61-3.29,4.05-3.3-2.11-.05-3.99.31-4.59-.64-.41-.64.72-1.5,2.09-2.54,2.37-1.8,8.71-1.79,8.45-1.91-2.5-1.13-6.39-.35-7.28-.38-3.6-.11-4.91-.78-5.34-1.46-.48-.77,1.1-2.14,2.14-2.53.94-.35,1.92-.64,2.91-.86-30.3-11.8-51.84-41.28-51.84-75.7,0-23.58,10.11-44.84,26.22-59.7-.48-.19-.91-.49-1.14-.91-.59-1.1.73-2.32,1.14-3.01,1.29-2.11,2.27-2.25,3.67-4.41.86-1.32,1.24-2.75,1.05-2.85-.18-.1-.78,1-2.11,2.37-1.14,1.17-2.66,2.69-4.78,3.01-1.2.18-2.75,0-2.97-.66-.13-.37.23-.69,1.33-2.34.25-.38,1.25-1.88,1.11-2-.13-.1-.94,1.29-2.23,1.35-.59.03-1.31-.22-1.48-.68-.16-.41.25-.66.23-1.05-.06-1.33-4.93-.94-6.38-3.44-.15-.27-.94-.6-1.21-1.4-.07-.2-.26-.79,0-1.05.38-.38,1.24.45,2.9.6.41.04,1.69.13,2.88-.54.7-.4.58-.61,1.17-.87,1.29-.57,2.24.27,2.89-.28.63-.54-.42-1.54-.02-1.72.66-.29,3.68,2.87,3.41,2.31-.49-1.02-.63-4.14-.04-4.38.65-.27,3.48,4.47,3.47,3.9-.04-2.11-.48-3.97.44-4.62.63-.44,1.53.66,2.63,1.98,1.9,2.29,2.16,8.63,2.27,8.36,1.02-2.55.08-6.4.07-7.29-.04-3.6.57-4.94,1.23-5.39.75-.51,2.19,1.01,2.62,2.03,1.41,3.35,2.15,7.19,1.14,10.4-.22.71-1.58,1.8-1.24,2.84.04.13.12.29.23.42.48-.3.96-.59,1.44-.87.04-.08.08-.15.11-.21,1.66-3.25,2.61-4.68,3.61-5.25,1.22-.7,3.48-1.64,4.03-.45.26.57.32,1.15.26,1.75,10.17-4.59,21.43-7.17,33.3-7.17.43,0,.85.03,1.28.03-1.45-1.86-3.28-4.94-4.36-7.92-.31-.85-.35-3.05-.7-3.1-.32-.04-.63,1.68-1.1,1.66-.63-.03-.61-3.12-1.57-3.31-.57-.12-1.21.87-1.56,1.4-1.39,2.09-3.06,3.98-4.59,5.98-2.13,2.8-5.21,5.15-5.72,4.75-.61-.49,1.74-5.77,5.82-9.94,1.58-1.61,4.15-2.86,3.85-3.32-.33-.53-3.35.74-3.5.4-.15-.33,1.95-1.73,1.74-2.61-.11-.47-.86-.77-1.13-.79-3.49-.18-12.19-3.32-13.21-4.34-.39-.39,1.89-1.23,3.94-1.11,4.89.28,8.18,2.71,9.49,3.18.64.23,1-1.51.54-1.95-.92-.88-2.09-1.75-2-1.99.12-.33,3.66,1.47,4.13.73.38-.6-1.57-2.73-1.26-3.07.23-.26,1.87,1.17,1.68.72-.35-.79-.8-2.08-1.26-3.95-36.51,3.13-68,24.14-85.63,54.21.15.76.37,1.47.78,1.58.3.08,1.16.15,1.88-1.52,1.06-2.49,2.63-3.65,3.7-4.78,2.09-2.2,5.43-2,5.72-1.26.17.42-.94.78-2.76,2.81-2.1,2.34-1.94,3.32-3.58,4.21-1.07.58-2.49.87-2.89,2.04-.42,1.21-1.57,1.24-.89,1.74.85.62,2.58.68,2.65,1.23.07.55-2.11.79-2.38,1.93,0,.04,0,.09-.01.13.88-.36,2.51-.81,5.63-.54,1.02.09,2.71.3,4.87.92.67.19,5.07,1.46,4.95,2.29-.07.46-1.53.6-3.19.74-1.38.12-4.45.28-10.49-.87-.13-.02-.24-.05-.36-.07.38.41.63.68.43.63-1.08-.26-2.82-1.26-3.68-.32-.66.72.86,3.38.18,3.48-.28.04-2.33-1.43-2.46-1.3-.16.16,2.41,2.78,4.7,6.17,1.9,2.82,1.71,6.47,1.34,7.6-.43,1.32-4.64-4.22-6.55-9.48-.31-.85-.35-3.05-.7-3.1-.32-.04-.63,1.68-1.1,1.66-.63-.03-.61-3.12-1.57-3.31-.23-.05-.46.08-.69.29-5.54,13.13-8.6,27.55-8.6,42.67,0,10.84,1.58,21.32,4.52,31.23.07-.67.17-1.39.34-2.14.27-1.25.8-3.63,1.9-3.77,1.05-.13,2.1,1.83,2.27,2.17.9,1.71.82,3.42.76,4.03-.26,2.85-1.92,4.04-1.2,5.52.25.51.78,1.03,1.15.94.65-.16.49-2.08.89-5.66.46-4.08,1.04-4.85,1.63-5.27.75-.53,1.89-.74,2.67-.27,1.07.65.55,2.37.54,3.17-.04,2.48-.81,3.09-.93,5.67-.07,1.57.32,3,.54,2.99.2,0,.17-1.26.62-3.11.39-1.59.93-3.67,2.6-5.02.94-.76,2.37-1.39,2.89-.94.29.25.15.71.04,2.69-.02.45-.12,2.26.06,2.28.16.02.16-1.59,1.23-2.3.49-.33,1.24-.48,1.63-.17.35.28.12.69.34,1.02.73,1.11,4.73-1.69,7.24-.27.27.15,1.12.04,1.76.6.16.14.63.54.54.9-.13.52-1.3.24-2.8.96-.37.18-1.52.74-2.21,1.93-.41.7-.19.82-.57,1.35-.82,1.15-2.07.9-2.35,1.71-.27.78,1.14,1.12.89,1.47-.42.58-4.63-.61-4.11-.26.94.63,2.64,3.25,2.26,3.76-.42.56-5.27-2.09-4.97-1.6,1.11,1.8,2.43,3.18,1.96,4.2-.32.7-1.65.21-3.27-.38-2.8-1.01-6.24-6.34-6.2-6.06.41,2.71,3.18,5.55,3.64,6.32,1.86,3.08,2.01,4.55,1.68,5.27-.38.82-2.4.24-3.29-.42-.88-.65-1.72-1.39-2.5-2.17,3.86,7.49,8.56,14.47,13.97,20.84.81-.05,2.23.16,3.43.7,4.46,2.02,6.65,5.47,7.71,6.39.51.44,1.48-1.05,1.21-1.62-.54-1.15-1.32-2.38-1.15-2.57.23-.26,2.88,2.69,3.59,2.17.57-.43-.48-3.11-.07-3.32.31-.15,1.33,1.76,1.3,1.28-.08-1.73.19-5.5,1.69-11.57.27-1.11,1.15-3.6,1.27-3.11.32,1.29,1.11,3.16,1.02,6.03-.15,4.87-2.01,8.58-1.29,8.94.47.23,1.44-1.52,1.86-1.25.45.3-.8,1.39-.03,2.8.28.51,2.67-1.7,2.91-1.76.61-.16-.82,3.19,0,3.79.25.18,1.03.56,2.3-.74,1.89-1.94,3.77-2.45,5.17-3.12,2.74-1.3,5.78.08,5.79.89,0,.45-1.16.39-3.59,1.62-2.8,1.43-3,2.4-4.85,2.64-1.2.16-2.64-.09-3.43.86-.82.98-1.91.59-1.46,1.31.57.89,2.16,1.57,2.03,2.1-.13.54-2.25-.02-2.91.94-.02.04-.04.08-.06.12.95-.01,2.63.15,5.45,1.52.92.45,2.42,1.25,4.21,2.61.56.42,4.2,3.19,3.79,3.92-.23.41-1.64,0-3.24-.46-1.33-.39-4.25-1.34-9.47-4.59-.11-.07-.21-.13-.31-.2.2.52.35.86.18.74-.92-.63-2.18-2.19-3.32-1.62-.52.26-.57,1.44-.66,2.33,18.23,13.35,40.68,21.24,64.95,21.24,6.72,0,13.3-.61,19.69-1.76.2-.29.32-.57.27-.81Z"/>
    <path class="cls-1" d="M104.6,82.91c-.45-.13-1,.69-2.02,2.17.79-.58,1.59-1.16,2.4-1.71-.09-.23-.21-.41-.38-.46Z"/>
  </g>
  <path class="cls-1" d="M170.33,101.67s11.33-5.19,12.79-5.55c.89-.22,1.84,1.61,3.77,2,.23.91-.18.65-.5.9-2.14,1.69-5.45,1.89-7.53,3.1-2.35,1.36-4.55,2.56-6.17,2.7-.4.04-1.09,4.44,0,5.13s2.44.7,3.15.79c1.29.17,5.2-1.56,6.7-1.97.39-.11,3.42-.92,3.55-.79.76.83-1.12,1.57-1.19,1.85-.34,1.47.24,3.13-1.47,4.47-3.13,2.45-9.25.38-6.81,7.09.17,1.44.66,2.55,1.58,3.55,1.5,1.62,2.63,2.13,4.34,3.16,2.24,1.35,2.01,1.5,4.73,1.97s6.72.81,9.47,0c2.94-.86,4.76-4.91,6.94-5.12s6.38,2.82,8.44,3.94c.75.41,2.11,1.54,2.25,1.57.77.17,3.18-.33,3.67.01.7.49.15,3.45.01,5.31-.11,1.49-1.55,8.97-2.83,10.6-.96,1.23-2.81,1.31-4.1,2.22-1.05.74-1.86,2.68-1.76,3.94.06.8,1.1,1.21,1.18,1.97s-5.04,5.14-5.72,5.91c-3.38,3.82-7.15,9.33-8.08,14.2-.26,1.37.05,2.49-.39,3.55-.65,1.55-2,1.93-2.57,2.76-1.06,1.56-.95,4.74-2.35,6.73-3.3,4.71-13.57,8.88-18.57,13.77-.71.69-2.63,4.35-4.13,3.39-.69-.44-2.57-4.72-3.92-5.57-.77-.48-2.79-.97-3.69-3.08-.21-.5-.19-1.69-.32-2.39-.38-2.07-.99-1.22-2.29-2.04-.64-.4-1.85-1.52-2.29-1.65-2.03-.6-3.32.86-5.1.96-3.4.18-12.59-.68-15.33-2.62-4.51-3.2-2.98-7.51-4.31-11.47-.43-1.28-2.49-1.38-1.8-3.52.35-1.08,1.54-3.62,1.58-4.34.19-3.56-4.38-6.87-7.23-8.35s-4.26-2.04-7.38-.54c-1.59.76-6.27,3.34-7.48,4.35-2.9,2.43-2.1,7.19-5.93,9.05-4.94,2.4-3.49-2.19-6.68-3.73-.1-1.27.48-2.34,1.97-2.96l-3.35-3.35c-.23-.1-1.24,1.93-2.96,0-.64-.49-3.25,3.1-5.26,1.61-.45-.33-.6-2.32-1.25-3.18-.54-.71-1.54-.9-1.95-1.6s-1.09-4.26-1-4.72c.13-.67.94-3.41,1.3-3.83,1.1-1.3,7.87-4.73,9.75-5.63,1.63-.79,5.07-3.44,5.13-3.55.13-.27.63-1.04.79-1.18,2.64-2.39,2.54-2.77,5.92-3.94.67-.23,1.32-.55,1.97-.79,2.25-.81,2.19-.72,3.94-2.37,1.04-.98,2.3-2.41,3.16-3.55,1.13-1.51,5.03-3.77,6.7-5.52.93-.97,1.54-1.87,2.37-2.76s2.28-2.69,3.16-3.16c.44-.23,1.48-.29,2.37-.79,2.5-1.41,3.27-2.66,5.22-4.05,1.44-1.02,14.09-7.31,18.45-9.36,2.66-1.25,5.43-1.17,8.28-1.58.57.06,1.4.05,1.97,0,1.92-.18,6.29-1.96,7.1-1.97Z"/>
  <g>
    <path class="cls-3" d="M135.92,144.61c-.12,1.36-.48,3.54-.86,5.84-.38,2.29-.77,4.66-.86,5.91-.05.72.06,1.14.06,1.15l.22.53c-.12-.84-.14-1.76-.05-2.75.27-2.29.75-4.86,1.17-7.14.33-1.78.71-3.8.74-4.51,0-.02,0-.04,0-.06-.12.09-.24.19-.34.3l-.08.74Z"/>
    <path class="cls-3" d="M165.11,146.41l-.39,3.51c.25.62.48.79.49.79.92-.03,1.66-1.98,1.77-4.88.06-1.6-.25-2.45-.45-2.77-.47.2-1.15,1.28-1.42,3.35Z"/>
  </g>
  <g>
    <path class="cls-2" d="M195.68,167.96v-.12c-.05-1.35-.92-5.74-10.07-5.74-5.71,0-9.13,2.15-10.91,4.99-.4-.9-.93-1.72-1.58-2.42-1.56-1.68-3.73-2.61-6.12-2.61-2.09,0-3.91.56-5.41,1.45-1.12-.94-2.59-1.41-4.4-1.41-3.55,0-5.69,1.89-6.44,3.5l-.64,1.19c-.33-.53-.68-.97-1.02-1.34-2.04-2.22-5.05-3.35-8.94-3.35-1.87,0-4.19.22-6.13,1.04.2-1.37-.04-2.63-.73-3.63-.82-1.19-2.16-1.88-3.68-1.88h-2.87c-4.22,0-5.14,3.04-5.59,4.51l-.06.2c-.11.33-.68,1.86-1.43,3.92-.21.58-.44,1.19-.67,1.83-.27-2.35-.49-4.29-.56-5.01-.22-4.01-2.95-5.44-5.44-5.44h-2.05c-1.93,0-3.08.83-3.72,1.53-1.51,1.66-1.3,3.84-1.19,5.06.15,1.36.92,6.73,1.67,11.93.53,3.66,1.07,7.45,1.13,7.99.35,3.38,2.54,5.4,5.84,5.4h4.4c4.67,0,5.78-3.24,6.28-4.69.13-.34.72-1.77,1.48-3.61.03,2.35.84,4.47,2.34,6.03,1.64,1.71,4,2.65,6.64,2.65,1.82,0,3.36-.48,4.64-1.19.81.65,2.02,1.19,3.75,1.19,2.23,0,4.24-.92,5.62-2.54.1.15.19.31.32.45.66.77,1.87,1.68,3.91,1.68h2.16c2.71,0,4.47-1.29,5.24-3.85.22.79.62,1.62,1.32,2.36,1.17,1.23,2.82,1.86,4.92,1.86,2.85,0,4.72-1.38,5.73-2.65.02.02.03.05.05.07,1.61,1.79,4.35,2.62,8.61,2.62,9.42,0,12.95-5.3,13.12-10.26.07-2.3-.78-4.32-2.38-5.87l.08-.08c.11-.11,2.79-2.65,2.79-5.75Z"/>
    <path class="cls-2" d="M90.83,117.42c-2.56,0-4.33.47-5.25,1.38l-1,1v1.41c0,.07,0,.34.08.78.35,1.79.32,3.84.23,5.18-.92-4.31-2.82-9.74-9.22-9.74-4.56,0-6.77,2.65-7.39,3.54-1.62-1.65-4.62-3.54-9.88-3.54-7.45,0-13.37,4.6-15.82,11.7.62-4.5,1.19-8.53,1.35-9.48.19-1.46.55-4.16-1.21-6.17-.73-.83-2.08-1.82-4.38-1.82h-2.93c-4.14,0-6.29,2.35-6.39,6.98,0,.28,0,.55-.02.7l-.15,1.08c-.16,1.16-.4,2.85-.65,4.89h-5.82c.38-2.71.71-4.92.82-5.58.21-1.34.65-4.14-1.11-6.21-.73-.85-2.08-1.86-4.42-1.86h-2.93c-4.09,0-6.25,2.31-6.41,6.88-.01.29-.02.57-.04.76-.06.45-.36,2.71-.74,5.71-.77,5.98-1.94,15.02-2.38,18.05-.21,1.34-.65,4.14,1.15,6.25.73.86,2.1,1.88,4.43,1.88h2.89c2,0,3.6-.58,4.75-1.74,1.74-1.75,1.73-4.1,1.73-5.5,0-.25,0-.49,0-.72v-.17c0-.55.31-2.97.57-5.1h5.84l-.69,5.19c-.19,1.47-.55,4.2,1.22,6.22.73.83,2.08,1.82,4.37,1.82h2.89c2,0,3.6-.58,4.75-1.74,1.74-1.75,1.73-4.1,1.73-5.5,0-.25,0-.49,0-.66.05-.78.3-2.86.64-5.48.26,3.72,1.58,7.01,3.85,9.42,1.91,2.02,5.45,4.43,11.5,4.43,2.26,0,5.01-.07,7.71-.31-.01,2.09.62,3.81,1.89,5.12,1.57,1.62,3.92,2.4,7.19,2.4,15.14,0,24.66-18.25,25.72-31.46.26-3.88-1.07-6.19-2.24-7.44-1.53-1.64-3.74-2.55-6.21-2.55Z"/>
    <path class="cls-2" d="M294.38,119.97c-1-1.17-2.89-2.55-6.22-2.55-2.05,0-4.07.68-5.81,1.87-1.25-1.24-3-1.87-5.2-1.87-4.31,0-6.3,2.49-6.95,3.56l-.2,1.65.13,1.8c.07.18.15.58.12.85-.05.4-.11.89-.18,1.41-.33-2.16-1.23-4.06-2.68-5.59-1.59-1.67-4.61-3.67-10.02-3.67-6.38,0-11.63,3.36-14.55,8.78-.71-2.37-1.78-4.04-2.8-5.17-2.09-2.33-5.02-3.61-8.23-3.61-2.57,0-4.64.67-6.27,1.64-.88-.83-2.32-1.64-4.55-1.64-2.72,0-5.87,1.51-7.33,3.52l-1.14,1.6.78,1.79c.21.47.24.55.19,1.51-.21,3.08-1.39,11.9-2.31,18.3l-.17-.19c-.01-.08-.02-.19-.02-.34.14-1.68.46-3.53.8-5.49.45-2.57.96-5.47,1.12-8.47.37-4.8-1.28-7.66-2.72-9.22-1.8-1.94-4.36-3.01-7.22-3.01-3.5,0-6.15,1.3-8.04,2.97-1.81-1.9-4.31-2.97-7.2-2.97-2.67,0-4.84.86-6.55,2.06-1.27-1.32-3.16-2.06-5.47-2.06-5.53,0-7.37,3.62-7.56,4.04l-.72,1.43.73,1.47c.03.06.06.16.06.22l.03.39c.04.46.07.89.03,1.25-.14,1.21-.32,2.64-.52,4.19-.01-4.52-1.64-7.33-3.11-8.93-2.47-2.69-6.15-4.05-10.93-4.05-3.34,0-7.85.52-10.35,3.02-2.81,2.81-2.23,6.96-.88,9.66l.37.74c-2.64,1.63-4.46,4.14-5.19,7.21-.86-1.48-2.26-2.34-3.89-2.34-1.28,0-2.34.54-3.13,1.03-.86.53-1.97,1.08-3.69,1.08-1.06,0-1.55-.38-1.82-.67-.79-.81-1.23-2.45-1.17-4.34.12-2.93,1.01-7.84,5.59-7.84,2.36,0,3.52.88,3.76,1.09l1.64,2.23,2.65-1.59c.37-.22,1.7-1.11,3.1-3.12,3.65-5.14.77-8.31-.19-9.14-1.11-.98-4.37-3.26-10.67-3.26-11.8,0-20.03,8.59-20.48,21.36-.24,6.07,1.37,11.09,4.67,14.52,2.9,3.01,7,4.61,11.87,4.61,6.71,0,10.75-2.77,11.74-3.55.44-.32.87-.72,1.23-1.21.35.57.76,1.11,1.23,1.6,1.95,2.04,4.79,3.16,7.98,3.16,2.43,0,4.45-.71,6.07-1.73.92.88,2.41,1.73,4.75,1.73,2.96,0,5.49-1.29,7.12-3.62l.22-.31c.2.53.48,1.05.89,1.53.75.88,2.15,1.92,4.61,1.92h2.36c6.31,0,6.54-5.72,6.62-7.6v-.12c.17-2.66.82-7.6,1.4-11.37.36-.51.67-.82.94-1.01,0,.04,0,.07,0,.11-.04,1.08-.45,3.26-.84,5.37-.45,2.4-.91,4.88-1.07,6.85v.14c-.1,2.53.55,4.54,1.95,5.99,1.35,1.41,3.23,2.12,5.59,2.12,4.25,0,6.54-2.72,7.22-4.33l.55-.79c.3,1.12.82,2.09,1.55,2.89.93,1.02,2.67,2.23,5.68,2.23,3.46,0,5.69-1.69,6.85-3.2-.21,1.36-.36,2.33-.43,2.7-.17.93-.61,3.41,1.01,5.35,1.05,1.25,2.6,1.88,4.61,1.88h2.4c5.06,0,6.39-3.58,6.74-5.73.07-.46.13-1.06.21-1.88,1.23.55,2.67.87,4.31.87,5.34,0,9.68-3.31,12.12-8.84.66,1.66,1.57,3.15,2.74,4.4,1.91,2.02,5.45,4.43,11.5,4.43,1.88,0,3.62-.25,5.18-.68.09,0,.21-.02.37-.08.05-.02.1-.03.15-.05.17-.05.32-.12.49-.17,2.48-.9,5.06-1.29,7.23-1.25.78.84,2.13,1.75,4.33,1.75h2.84c2.58,0,5.78-1.05,6.32-6.06.14-1.23.26-2.51.38-3.84.21-2.29.43-4.64.77-6.92,1.16.76,2.49,1.13,4.08,1.13,3.47,0,7.34-2.39,8.18-7.75.5-3.28-.06-5.9-1.67-7.76ZM198.11,131.14c-.04.72-.41,2.73-.74,4.51-.42,2.27-.9,4.85-1.17,7.14-.09.99-.07,1.91.05,2.75l-.22-.53s-.11-.43-.06-1.15c.09-1.25.48-3.62.86-5.91.38-2.3.74-4.48.86-5.84l.08-.74c.1-.11.22-.21.34-.3,0,.02,0,.04,0,.06ZM228.76,133.35c-.11,2.9-.85,4.85-1.77,4.88,0,0-.24-.17-.49-.79l.39-3.51c.27-2.07.95-3.15,1.42-3.35.2.32.51,1.18.45,2.77Z"/>
  </g>
  <g>
    <path class="cls-1" d="M38.35,115h-2.93c-3.51,0-2.84,2.74-3.03,4.71-.14,1.11-.67,4.62-1.15,8.95h-12.75c.58-4.52,1.2-8.66,1.35-9.52.29-1.83.53-4.14-2.16-4.14h-2.93c-3.51,0-2.84,2.74-3.08,4.71-.19,1.35-2.45,19.19-3.13,23.81-.29,1.83-.48,4.18,2.21,4.18h2.89c3.61,0,2.98-2.74,3.08-4.71,0-1.01.48-4.52.96-8.51h12.75l-1.2,9.04c-.24,1.83-.48,4.18,2.21,4.18h2.89c3.61,0,2.98-2.74,3.08-4.71.19-2.89,2.84-21.84,3.17-23.86.24-1.83.48-4.14-2.21-4.14Z"/>
    <path class="cls-1" d="M58.41,120.77c-7.79,0-13.13,6.06-13.61,14.62-.39,6.59,2.98,12.79,11.98,12.79,5.68,0,9.19-2.31,9.38-4.95.05-1.25-.34-2.36-1.35-3.37,0,0-2.98,2.12-6.69,2.12-4.86,0-6.54-3.27-6.35-6.25l.19-.14s1.44,1.78,5.34,1.78c5.05,0,10.39-2.84,10.53-8.32.24-4.57-2.6-8.27-9.43-8.27ZM55.52,132.98c-1.92,0-3.03-.48-3.27-.58,0,0,.1-.53.14-.91.43-2.21,2.21-4.81,5.43-4.81,1.97,0,3.13,1.11,3.08,2.69-.05,2.55-2.6,3.61-5.39,3.61Z"/>
    <path class="cls-1" d="M90.83,120.77c-1.44,0-2.74.29-2.84.38,0,.1.58,2.31.29,6.4-.91,8.85-3.66,14.38-4.62,16.02l-.34-.1c-.19-3.85-.38-7.89-1.39-13.76-1.06-5.72-2.21-8.95-6.25-8.95-3.37,0-4.62,2.12-4.62,2.12,1.97,2.55,6.54,13.13,7.36,23.42,0,0-2.65,2.74-6.4,2.74-1.78,0-3.22-.38-3.46-.53-.05.14-.63,1.35-.67,2.6-.1,2.98,1.73,4.28,5.68,4.28,12.22,0,21.31-15.63,22.32-28.28.34-4.95-2.6-6.35-5.05-6.35Z"/>
    <path class="cls-1" d="M125.9,148.18c4.76,0,8.13-1.64,9.72-2.89,1.11-.82.82-1.54.38-2.45l-1.11-2.79c-.58-1.49-1.59-1.01-2.45-.48-1.01.63-2.79,1.59-5.48,1.59-4.47,0-6.54-3.85-6.4-8.56.24-5.77,2.84-11.11,8.99-11.11,4.38,0,6.3,2.21,6.3,2.21,0,0,.96-.58,2.07-2.16,1.88-2.65,1.11-3.94.34-4.62-.82-.72-3.32-2.4-8.42-2.4-10.1,0-16.69,7.26-17.07,18.08-.34,8.37,3.41,15.58,13.13,15.58Z"/>
    <path class="cls-1" d="M148.08,148.18c5.48,0,7.6-5.05,7.6-5.05h.24c-.82,3.66.58,5.05,2.98,5.05,2.74,0,3.99-1.68,4.33-2.16-.29-.53-.63-1.3-.63-2.5.05-1.73,1.54-9.38,1.68-11.74.58-6.83-2.84-11.01-10.58-11.01-3.94,0-6.73.82-7.94,2.02-1.97,1.97-.43,5.34-.24,5.72.43-.1,3.32-.96,6.64-.96,4.09,0,4.57,1.88,4.47,3.9,0,.67-.24,1.54-.24,1.54-2.02-.67-4.04-.96-5.87-.91-5.39.14-9.62,3.22-9.81,8.56-.19,4.47,2.69,7.55,7.36,7.55ZM152.84,135.92c1.64,0,2.89.38,3.32.48l-.29,2.16c-.19.82-1.63,3.85-5.19,3.85-1.97,0-3.13-1.15-3.08-2.69.14-2.6,2.45-3.8,5.24-3.8Z"/>
    <path class="cls-1" d="M202.96,120.77c-5.15,0-7.6,3.75-8.27,5.67h-.34c-.77-3.46-3.08-5.67-6.64-5.67-4.71,0-7.26,3.8-7.94,5.67h-.24c.14-.91.19-1.83,0-2.64-.14-1.54-.96-3.03-3.85-3.03-3.51,0-4.47,2.07-4.47,2.07,0,0,.34.67.38,1.44.05.67.14,1.44.05,2.26-.48,4.23-1.39,10.73-2.26,16.98-.34,2.07-.43,4.18,2.36,4.18h2.36c3.13,0,3.13-2.21,3.22-4.52.19-3.03.96-8.71,1.54-12.41.48-.77,2.07-3.41,4.81-3.41,2.26,0,2.89,1.54,2.79,3.9-.1,2.65-1.64,8.75-1.92,12.36-.1,2.55.82,4.57,4.14,4.57,3.13,0,4.09-2.26,4.09-2.26,0,0-.29-.87-.19-2.36.19-2.69,1.49-9.14,1.73-11.88l.19-1.73c.77-1.11,2.16-2.6,4.23-2.6,2.26,0,2.89,1.73,2.79,3.9-.1,1.92-1.44,7.7-1.92,11.78-.29,3.22.87,5.15,4.09,5.15s4.47-2.36,4.47-2.36c0,0-.67-.77-.58-2.55.34-4.14,1.64-8.8,1.92-13.95.43-5.68-2.55-8.56-6.54-8.56Z"/>
    <path class="cls-1" d="M231.77,120.77c-5.87,0-7.55,4.62-7.55,4.62h-.34c.43-2.64-.14-4.62-2.93-4.62-1.73,0-3.8,1.06-4.57,2.12.34.77.58,1.3.48,3.13-.34,5-3.03,23.71-3.41,25.68-.34,1.88-.14,3.22,2.26,3.22h2.4c1.68,0,2.98-.43,3.37-2.84.19-1.25.39-4.62.96-9.47h.38c.05,1.83,1.83,5.58,6.54,5.58,5.53,0,9.76-5.05,10.68-13.27,1.01-9.52-3.03-14.14-8.27-14.14ZM226.92,141.54c-2.79,0-3.7-3.13-3.9-3.8l.48-4.33c.58-4.38,2.69-6.35,4.95-6.35s3.85,2.26,3.7,6.35c-.24,6.25-2.84,8.13-5.24,8.13Z"/>
    <path class="cls-1" d="M257.37,120.77c-7.79,0-13.13,6.06-13.61,14.62-.39,6.59,2.98,12.79,11.98,12.79,5.68,0,9.19-2.31,9.38-4.95.05-1.25-.34-2.36-1.35-3.37,0,0-2.98,2.12-6.69,2.12-4.86,0-6.54-3.27-6.35-6.25l.19-.14s1.44,1.78,5.34,1.78c5.05,0,10.39-2.84,10.53-8.32.24-4.57-2.6-8.27-9.43-8.27ZM254.48,132.98c-1.92,0-3.03-.48-3.27-.58,0,0,.1-.53.14-.91.43-2.21,2.21-4.81,5.43-4.81,1.97,0,3.13,1.11,3.08,2.69-.05,2.55-2.6,3.61-5.39,3.61Z"/>
    <path class="cls-1" d="M288.15,120.77c-3.27,0-6.16,2.6-7.26,5.67h-.29c.63-3.46.05-5.67-3.46-5.67-2.31,0-3.51,1.06-4.04,1.92.29.48.67,1.73.53,2.93-.48,3.94-1.83,13.9-2.5,18.47-.39,2.4.48,3.61,2.36,3.61h2.84c1.97,0,2.69-.82,2.93-3.03.43-3.85.67-8.27,1.44-12.6.53-2.64,2.12-4.71,3.75-4.71,1.39,0,1.78,1.92,1.2,4.09.29.19.91.58,2.21.58,2.07,0,4.28-1.49,4.81-4.86.58-3.8-.63-6.4-4.52-6.4Z"/>
    <path class="cls-1" d="M129.61,160.85h-2.87c-1.9,0-2.05.89-2.53,2.46-.37,1.12-5.67,15.25-6.67,18.53h-.22c-.3-2.68-1.98-16.44-2.16-18.6-.04-.78-.15-2.39-2.16-2.39h-2.05c-1.79,0-1.79,1.38-1.64,2.94.26,2.35,2.65,18.56,2.8,19.94.15,1.42.71,2.46,2.57,2.46h4.4c2.27,0,2.68-1.04,3.21-2.57.52-1.38,6.78-16.29,8.24-19.98.52-1.34.49-2.8-.89-2.8Z"/>
    <path class="cls-1" d="M140.16,165.32c-3.06,0-5.22.63-6.15,1.57-1.53,1.53-.34,4.14-.19,4.44.34-.07,2.57-.75,5.14-.75,3.17,0,3.54,1.45,3.47,3.02,0,.52-.19,1.19-.19,1.19-1.57-.52-3.13-.75-4.55-.71-4.17.11-7.45,2.5-7.6,6.64-.15,3.47,2.09,5.85,5.7,5.85,4.25,0,5.89-3.91,5.89-3.91h.19c-.63,2.83.45,3.91,2.31,3.91,2.13,0,3.09-1.3,3.36-1.68-.22-.41-.48-1.01-.48-1.94.04-1.34,1.19-7.27,1.3-9.1.45-5.29-2.2-8.54-8.2-8.54ZM141.84,179.11c-.15.63-1.27,2.98-4.03,2.98-1.53,0-2.42-.89-2.39-2.09.11-2.01,1.9-2.94,4.06-2.94,1.27,0,2.24.3,2.57.37l-.22,1.68Z"/>
    <path class="cls-1" d="M167,165.29c-3.95,0-6.04,2.76-6.63,4.4h-.19c.07-.48.15-.97.15-1.42.04-1.49-.52-2.94-3.13-2.94s-3.47,1.6-3.47,1.6c0,0,.52.82.45,1.86-.11,1.75-1.04,8.13-1.86,14.13-.22,1.42-.34,3.24,1.71,3.24h2.16c2.91,0,2.27-3.02,2.46-5.29.19-2.2.63-5.29,1.01-7.75.37-.56,1.75-2.68,3.95-2.68,1.71,0,2.42,1.38,2.35,3.02-.07,1.79-1.45,7.9-1.49,9.65-.07,1.42.07,3.43,3.21,3.43,2.61,0,3.43-1.83,3.43-1.83,0,0-.45-.67-.41-1.71.04-1.45,1.42-8.57,1.57-11.15.26-3.5-1.71-6.56-5.26-6.56Z"/>
    <path class="cls-1" d="M185.72,169.91c2.91,0,4.92,1.34,4.92,1.34.6-.56,1.75-2.09,1.75-3.36-.04-1.04-1.64-2.57-6.78-2.57-5.7,0-8.98,2.53-9.17,6.9-.07,2.27,1.3,3.95,4.47,5l2.12.71c1.57.48,2.53,1.16,2.5,2.12-.04,1.42-1.71,1.94-3.32,1.94-3.21,0-5.29-1.45-5.29-1.45-.19.11-1.38,1.49-1.53,2.98-.15,1.45,1.12,3.06,6.67,3.06,6.19,0,9.69-2.68,9.84-7.08.07-2.42-1.53-4.32-4.88-5.26l-2.42-.71c-1.34-.37-1.9-.97-1.86-1.75.04-1.57,1.86-1.86,2.98-1.86Z"/>
  </g>
</svg>